<mxfile host="app.diagrams.net" agent="Mozilla/5.0 (Macintosh; Intel Mac OS X 10_15_7) AppleWebKit/537.36 (KHTML, like Gecko) Chrome/136.0.0.0 Safari/537.36" version="26.0.12">
  <diagram name="Page-1" id="LIiPpodHZWzeGJHmhpI4">
    <mxGraphModel dx="984" dy="576" grid="1" gridSize="10" guides="1" tooltips="1" connect="1" arrows="1" fold="1" page="1" pageScale="1" pageWidth="850" pageHeight="1100" math="0" shadow="0">
      <root>
        <mxCell id="0" />
        <mxCell id="1" parent="0" />
        <mxCell id="c7uYcp7gHRq5vSmRVMSs-2" value="users" style="swimlane;whiteSpace=wrap;html=1;" vertex="1" parent="1">
          <mxGeometry x="320" y="190" width="140" height="140" as="geometry">
            <mxRectangle x="320" y="190" width="70" height="30" as="alternateBounds" />
          </mxGeometry>
        </mxCell>
        <mxCell id="c7uYcp7gHRq5vSmRVMSs-3" value="&lt;ul&gt;&lt;li&gt;user_id(unique)&lt;/li&gt;&lt;li&gt;username(primary)&lt;/li&gt;&lt;li&gt;password(encrypted)&lt;/li&gt;&lt;/ul&gt;" style="text;html=1;align=center;verticalAlign=middle;whiteSpace=wrap;rounded=0;" vertex="1" parent="c7uYcp7gHRq5vSmRVMSs-2">
          <mxGeometry x="20" y="40" width="60" height="30" as="geometry" />
        </mxCell>
        <mxCell id="c7uYcp7gHRq5vSmRVMSs-4" value="files" style="swimlane;whiteSpace=wrap;html=1;" vertex="1" parent="1">
          <mxGeometry x="550" y="187.5" width="130" height="145" as="geometry">
            <mxRectangle x="550" y="187.5" width="60" height="30" as="alternateBounds" />
          </mxGeometry>
        </mxCell>
        <mxCell id="c7uYcp7gHRq5vSmRVMSs-6" value="&lt;ul&gt;&lt;li&gt;file_id&lt;/li&gt;&lt;li&gt;file_path&lt;/li&gt;&lt;li&gt;status&lt;/li&gt;&lt;/ul&gt;" style="text;html=1;align=left;verticalAlign=middle;whiteSpace=wrap;rounded=0;" vertex="1" parent="c7uYcp7gHRq5vSmRVMSs-4">
          <mxGeometry x="-20" y="35" width="60" height="30" as="geometry" />
        </mxCell>
        <mxCell id="c7uYcp7gHRq5vSmRVMSs-8" value="" style="endArrow=none;html=1;rounded=0;entryX=0;entryY=0.5;entryDx=0;entryDy=0;exitX=1;exitY=0.5;exitDx=0;exitDy=0;" edge="1" parent="1" source="c7uYcp7gHRq5vSmRVMSs-2" target="c7uYcp7gHRq5vSmRVMSs-4">
          <mxGeometry width="50" height="50" relative="1" as="geometry">
            <mxPoint x="400" y="420" as="sourcePoint" />
            <mxPoint x="450" y="370" as="targetPoint" />
          </mxGeometry>
        </mxCell>
      </root>
    </mxGraphModel>
  </diagram>
</mxfile>
